<svg width="25" height="25" viewBox="0 0 25 25" fill="none" xmlns="http://www.w3.org/2000/svg">
<circle cx="12.5" cy="12.5" r="12.5" fill="#D9D9D9"/>
<path fill-rule="evenodd" clip-rule="evenodd" d="M8.24259 16.7279C7.99154 16.4768 7.99154 16.0698 8.24259 15.8187L15.8187 8.2426C16.0698 7.99155 16.4768 7.99155 16.7279 8.2426C16.9789 8.49365 16.9789 8.90069 16.7279 9.15174L9.15173 16.7279C8.90068 16.9789 8.49364 16.9789 8.24259 16.7279Z" fill="#666666"/>
<path fill-rule="evenodd" clip-rule="evenodd" d="M16.728 16.7278C16.477 16.9789 16.0699 16.9789 15.8189 16.7278L8.24272 9.15168C7.99167 8.90062 7.99167 8.49359 8.24272 8.24254C8.49378 7.99149 8.90081 7.99149 9.15186 8.24254L16.728 15.8187C16.9791 16.0697 16.9791 16.4768 16.728 16.7278Z" fill="#666666"/>
</svg>
